{"title":"Tokyo.Gore.Police.2008.SWESUB.DVDRip.XviD.-Zen_Bud","uid":5600694,"size":739512878,"categoryP":"video","categoryS":"movies","magnet":"?xt=urn:btih:8cf39c432f9e68c5f0e3d43580687c9a2480efe1&amp;dn=Tokyo.Gore.Police.2008.SWESUB.DVDRip.XviD.-Zen_Bud&amp;tr=udp%3A%2F%2Ftracker.openbittorrent.com%3A80&amp;tr=udp%3A%2F%2Fopen.demonii.com%3A1337&amp;tr=udp%3A%2F%2Ftracker.coppersurfer.tk%3A6969&amp;tr=udp%3A%2F%2Fexodus.desync.com%3A6969","seeders":1,"leechers":0,"uploader":"Zen_Bud","files":1,"time":1275296551,"description":"General\nComplete name                    : Tokyo.Gore.Police.avi\nFormat                           : AVI\nFile size                        : 705 MiB\nDuration                         : 1h 49mn\nOverall bit rate                 : 901 Kbps\n\nVideo\nID                               : 0\nFormat                           : MPEG-4 Visual\nCodec ID/Hint                    : XviD\nDuration                         : 1h 49mn\nBit rate                         : 760 Kbps\nWidth                            : 720 pixels\nHeight                           : 576 pixels\nDisplay aspect ratio             : 16:9\nChroma subsampling               : 4:2:0\nBit depth                        : 8 bits\nScan type                        : Progressive\nBits/(Pixel*Frame)               : 0.073\nStream size                      : 595 MiB (84%)\nWriting library                  : XviD 1.1.2 (UTC 2006-11-01)\n\nAudio\nID                               : 1\nFormat                           : MPEG Audio\nMode extension                   : MS Stereo\nCodec ID                         : 55\nCodec ID/Hint                    : MP3\nDuration                         : 1h 49mn\nBit rate                         : 128 Kbps\nChannel(s)                       : 2 channels\nSampling rate                    : 48.0 KHz\nStream size                      : 100 MiB (14%)\nWriting library                  : LAME3.98\n\n","torrent":{"xt":"urn:btih:8cf39c432f9e68c5f0e3d43580687c9a2480efe1","amp;dn":"Tokyo.Gore.Police.2008.SWESUB.DVDRip.XviD.-Zen_Bud","amp;tr":["udp%3A%2F%2Ftracker.openbittorrent.com%3A80","udp%3A%2F%2Fopen.demonii.com%3A1337","udp%3A%2F%2Ftracker.coppersurfer.tk%3A6969","udp%3A%2F%2Fexodus.desync.com%3A6969"],"infoHash":"8cf39c432f9e68c5f0e3d43580687c9a2480efe1","infoHashBuffer":{"type":"Buffer","data":[140,243,156,67,47,158,104,197,240,227,212,53,128,104,124,154,36,128,239,225]},"announce":[],"urlList":[]}}